<?xml version="1.0" encoding="UTF-8" standalone="no"?>
<!DOCTYPE svg PUBLIC "-//W3C//DTD SVG 1.1//EN" "http://www.w3.org/Graphics/SVG/1.1/DTD/svg11.dtd">
<svg width="100%" height="100%" viewBox="0 0 1383 1107" version="1.1" xmlns="http://www.w3.org/2000/svg" xmlns:xlink="http://www.w3.org/1999/xlink" xml:space="preserve" xmlns:serif="http://www.serif.com/" style="fill-rule:evenodd;clip-rule:evenodd;stroke-linecap:round;stroke-linejoin:round;stroke-miterlimit:1.5;">
    <g id="Artboard1" transform="matrix(1,0,0,1,80.0653,45.153)">
        <rect x="-80.065" y="-45.153" width="1382.57" height="1106.42" style="fill:none;"/>
        <g transform="matrix(0.925284,0,0,0.925284,92.1664,-109.784)">
            <g transform="matrix(1,0,0,1,-211.282,211.282)">
                <path d="M475.385,448.974L633.846,369.744L739.043,422.786L581.026,501.795L475.385,448.974Z" style="fill:rgb(215,215,215);"/>
                <path d="M739.652,421.58L739.648,423.994L581.026,503.305L474.78,450.183L474.78,447.766L633.849,368.232L739.652,421.58ZM475.385,448.974L581.026,501.795L739.043,422.786L633.846,369.744L475.385,448.974Z" style="fill:rgb(122,122,122);"/>
            </g>
            <g transform="matrix(1,0,0,1,-211.282,184.872)">
                <path d="M475.385,448.974L633.846,369.744L739.043,422.786L581.026,501.795L475.385,448.974Z" style="fill:rgb(215,215,215);"/>
                <path d="M739.652,421.58L739.648,423.994L581.026,503.305L474.78,450.183L474.78,447.766L633.849,368.232L739.652,421.58ZM475.385,448.974L581.026,501.795L739.043,422.786L633.846,369.744L475.385,448.974Z" style="fill:rgb(122,122,122);"/>
            </g>
            <g transform="matrix(1,0,0,1,-211.282,161.129)">
                <path d="M475.385,448.974L633.846,369.744L739.043,422.786L581.026,501.795L475.385,448.974Z" style="fill:rgb(215,215,215);"/>
                <path d="M739.652,421.58L739.648,423.994L581.026,503.305L474.78,450.183L474.78,447.766L633.849,368.232L739.652,421.58ZM475.385,448.974L581.026,501.795L739.043,422.786L633.846,369.744L475.385,448.974Z" style="fill:rgb(122,122,122);"/>
            </g>
            <g transform="matrix(1,0,0,1,-211.282,132.051)">
                <path d="M475.385,448.974L633.846,369.744L739.043,422.786L581.026,501.795L475.385,448.974Z" style="fill:rgb(215,215,215);"/>
                <path d="M739.652,421.58L739.648,423.994L581.026,503.305L474.78,450.183L474.78,447.766L633.849,368.232L739.652,421.58ZM475.385,448.974L581.026,501.795L739.043,422.786L633.846,369.744L475.385,448.974Z" style="fill:rgb(122,122,122);"/>
            </g>
            <g transform="matrix(1,0,0,1,-211.282,105.641)">
                <path d="M475.385,448.974L633.846,369.744L739.043,422.786L581.026,501.795L475.385,448.974Z" style="fill:rgb(215,215,215);"/>
                <path d="M739.652,421.58L739.648,423.994L581.026,503.305L474.78,450.183L474.78,447.766L633.849,368.232L739.652,421.58ZM475.385,448.974L581.026,501.795L739.043,422.786L633.846,369.744L475.385,448.974Z" style="fill:rgb(122,122,122);"/>
            </g>
            <g transform="matrix(1,0,0,1,-211.282,79.2308)">
                <path d="M475.385,448.974L633.846,369.744L739.043,422.786L581.026,501.795L475.385,448.974Z" style="fill:rgb(215,215,215);"/>
                <path d="M739.652,421.58L739.648,423.994L581.026,503.305L474.78,450.183L474.78,447.766L633.849,368.232L739.652,421.58ZM475.385,448.974L581.026,501.795L739.043,422.786L633.846,369.744L475.385,448.974Z" style="fill:rgb(122,122,122);"/>
            </g>
            <g transform="matrix(1,0,0,1,-211.282,55.4877)">
                <path d="M475.385,448.974L633.846,369.744L739.043,422.786L581.026,501.795L475.385,448.974Z" style="fill:rgb(215,215,215);"/>
                <path d="M739.652,421.58L739.648,423.994L581.026,503.305L474.78,450.183L474.78,447.766L633.849,368.232L739.652,421.58ZM475.385,448.974L581.026,501.795L739.043,422.786L633.846,369.744L475.385,448.974Z" style="fill:rgb(122,122,122);"/>
            </g>
            <g transform="matrix(1,0,0,1,-211.282,26.4103)">
                <path d="M475.385,448.974L633.846,369.744L739.043,422.786L581.026,501.795L475.385,448.974Z" style="fill:rgb(215,215,215);"/>
                <path d="M739.652,421.58L739.648,423.994L581.026,503.305L474.78,450.183L474.78,447.766L633.849,368.232L739.652,421.58ZM475.385,448.974L581.026,501.795L739.043,422.786L633.846,369.744L475.385,448.974Z" style="fill:rgb(122,122,122);"/>
            </g>
            <g transform="matrix(1,0,0,1,-208.346,1.19918)">
                <path d="M475.385,448.974L633.846,369.744L739.043,422.786L581.026,501.795L475.385,448.974Z" style="fill:rgb(215,215,215);"/>
                <path d="M739.652,421.58L739.648,423.994L581.026,503.305L474.78,450.183L474.78,447.766L633.849,368.232L739.652,421.58ZM475.385,448.974L581.026,501.795L739.043,422.786L633.846,369.744L475.385,448.974Z" style="fill:rgb(122,122,122);"/>
            </g>
            <g transform="matrix(1,0,0,1,-208.346,-25.2111)">
                <path d="M475.385,448.974L633.846,369.744L739.043,422.786L581.026,501.795L475.385,448.974Z" style="fill:rgb(215,215,215);"/>
                <path d="M739.652,421.58L739.648,423.994L581.026,503.305L474.78,450.183L474.78,447.766L633.849,368.232L739.652,421.58ZM475.385,448.974L581.026,501.795L739.043,422.786L633.846,369.744L475.385,448.974Z" style="fill:rgb(122,122,122);"/>
            </g>
            <g transform="matrix(1,0,0,1,-208.346,-48.9541)">
                <path d="M475.385,448.974L633.846,369.744L739.043,422.786L581.026,501.795L475.385,448.974Z" style="fill:rgb(215,215,215);"/>
                <path d="M739.652,421.58L739.648,423.994L581.026,503.305L474.78,450.183L474.78,447.766L633.849,368.232L739.652,421.58ZM475.385,448.974L581.026,501.795L739.043,422.786L633.846,369.744L475.385,448.974Z" style="fill:rgb(122,122,122);"/>
            </g>
            <g transform="matrix(1,0,0,1,-208.346,-78.0316)">
                <path d="M475.385,448.974L633.846,369.744L739.043,422.786L581.026,501.795L475.385,448.974Z" style="fill:rgb(215,215,215);"/>
                <path d="M739.652,421.58L739.648,423.994L581.026,503.305L474.78,450.183L474.78,447.766L633.849,368.232L739.652,421.58ZM475.385,448.974L581.026,501.795L739.043,422.786L633.846,369.744L475.385,448.974Z" style="fill:rgb(122,122,122);"/>
            </g>
            <g transform="matrix(1,0,0,1,-208.346,-104.442)">
                <path d="M475.385,448.974L633.846,369.744L739.043,422.786L581.026,501.795L475.385,448.974Z" style="fill:rgb(215,215,215);"/>
                <path d="M739.652,421.58L739.648,423.994L581.026,503.305L474.78,450.183L474.78,447.766L633.849,368.232L739.652,421.58ZM475.385,448.974L581.026,501.795L739.043,422.786L633.846,369.744L475.385,448.974Z" style="fill:rgb(122,122,122);"/>
            </g>
            <g transform="matrix(1,0,0,1,-208.346,-130.852)">
                <path d="M475.385,448.974L633.846,369.744L739.043,422.786L581.026,501.795L475.385,448.974Z" style="fill:rgb(215,215,215);"/>
                <path d="M739.652,421.58L739.648,423.994L581.026,503.305L474.78,450.183L474.78,447.766L633.849,368.232L739.652,421.58ZM475.385,448.974L581.026,501.795L739.043,422.786L633.846,369.744L475.385,448.974Z" style="fill:rgb(122,122,122);"/>
            </g>
            <g transform="matrix(1,0,0,1,-208.346,-154.595)">
                <path d="M475.385,448.974L633.846,369.744L739.043,422.786L581.026,501.795L475.385,448.974Z" style="fill:rgb(215,215,215);"/>
                <path d="M739.652,421.58L739.648,423.994L581.026,503.305L474.78,450.183L474.78,447.766L633.849,368.232L739.652,421.58ZM475.385,448.974L581.026,501.795L739.043,422.786L633.846,369.744L475.385,448.974Z" style="fill:rgb(122,122,122);"/>
            </g>
            <g transform="matrix(1,0,0,1,-208.346,-183.673)">
                <path d="M475.385,448.974L633.846,369.744L739.043,422.786L581.026,501.795L475.385,448.974Z" style="fill:rgb(215,215,215);"/>
                <path d="M739.652,421.58L739.648,423.994L581.026,503.305L474.78,450.183L474.78,447.766L633.849,368.232L739.652,421.58ZM475.385,448.974L581.026,501.795L739.043,422.786L633.846,369.744L475.385,448.974Z" style="fill:rgb(122,122,122);"/>
            </g>
        </g>
        <g transform="matrix(0.925284,0,0,0.925284,-40.0483,-660.065)">
            <g transform="matrix(1.0328,0,0,0.894427,-1.87836,210.343)">
                <path d="M615.538,1536.48L922.398,1713.65L1229.26,1536.48L922.397,1359.32L615.538,1536.48Z" style="fill:rgb(166,166,166);fill-opacity:0.4;stroke:rgb(128,128,128);stroke-width:3.96px;"/>
            </g>
            <g transform="matrix(0.994114,0,0,1.00255,7.46334,-4.0353)">
                <path d="M948.891,1426.56L948.891,1215.81L1268.02,1373.5L1267.69,1584.62L948.891,1426.56Z" style="fill:rgb(128,128,128);fill-opacity:0.4;stroke:rgb(128,128,128);stroke-width:3.83px;"/>
            </g>
            <path d="M950.769,1426.15L950.769,1214.87L633.846,1373.33L633.846,1584.62L950.769,1426.15Z" style="fill:rgb(128,128,128);fill-opacity:0.4;stroke:rgb(128,128,128);stroke-width:3.83px;"/>
            <g transform="matrix(1,0,0,1,103.416,-666.722)">
                <g>
                    <g>
                        <path d="M739.487,2165.64L845.128,2218.46L951.038,2165.51L950.872,2060.05L845.397,2112.69L739.756,2059.87L739.487,2165.64Z" style="fill:rgb(255,170,77);stroke:black;stroke-width:4.5px;"/>
                        <path d="M845.262,2007.11L951.038,2060.13L845.397,2112.69L740.191,2060.08L845.262,2007.11Z" style="fill:rgb(255,170,77);stroke:black;stroke-width:4.5px;"/>
                        <path d="M845.614,2113.06L845.614,2218.22" style="fill:none;stroke:black;stroke-width:4.5px;"/>
                    </g>
                </g>
            </g>
            <path d="M950.77,1743.08L951.101,1531.96L633.846,1373.33L633.846,1584.62L950.77,1743.08Z" style="fill:none;stroke:rgb(128,128,128);stroke-width:3.83px;"/>
            <path d="M951.101,1531.96L1268.56,1373.23L1267.69,1584.62L951.101,1743.24L951.101,1531.96Z" style="fill:none;stroke:rgb(128,128,128);stroke-width:3.83px;"/>
            <path d="M633.846,1373.33L633.846,1584.62L951.101,1743.24L1267.69,1584.95L1268.56,1372.9L950.769,1214.33L633.846,1373.33Z" style="fill:none;stroke:black;stroke-width:13.51px;"/>
        </g>
    </g>
</svg>
