<?xml version="1.0" encoding="UTF-8" standalone="no"?>
<!DOCTYPE svg PUBLIC "-//W3C//DTD SVG 1.1//EN" "http://www.w3.org/Graphics/SVG/1.1/DTD/svg11.dtd">
<svg width="100%" height="100%" viewBox="0 0 416 116" version="1.1" xmlns="http://www.w3.org/2000/svg" xmlns:xlink="http://www.w3.org/1999/xlink" xml:space="preserve" style="fill-rule:evenodd;clip-rule:evenodd;stroke-linejoin:round;stroke-miterlimit:1.41421;">
    <g transform="matrix(0.34233,0,0,0.34233,7.07517,-26.8457)">
        <g transform="matrix(1.69113,0,0,1.69113,335.088,-566.251)">
            <path d="M36.812,420.78L14.174,420.78L14.174,505.888L36.981,505.888L36.981,448.867C36.981,448.867 49.066,444.612 64.046,441.718L64.046,418.739C51.11,421.291 36.812,429.801 36.812,429.801L36.812,420.78Z" style="fill:white;fill-rule:nonzero;"/>
        </g>
        <g transform="matrix(1.69113,0,0,1.69113,335.088,-566.251)">
            <path d="M96.038,455.675C96.209,442.74 99.953,437.463 110.847,437.463C121.572,437.463 125.484,441.887 125.484,455.675L96.038,455.675ZM110.847,418.739C85.996,418.739 73.23,434.23 73.23,464.528C73.23,495.163 84.124,507.929 109.827,507.929C125.656,507.929 145.231,503.162 145.231,503.162L144.89,486.315C144.89,486.315 127.358,487.844 113.401,487.844C101.145,487.844 96.378,483.251 96.209,473.038L146.251,473.038L147.954,457.209C147.954,431.504 135.869,418.739 110.847,418.739Z" style="fill:white;fill-rule:nonzero;"/>
        </g>
        <g transform="matrix(1.69113,0,0,1.69113,335.088,-566.251)">
            <path d="M202.751,439.165C209.218,439.165 222.666,440.526 222.666,440.526L223.347,422.483C223.347,422.483 205.986,418.739 196.113,418.739C170.751,418.739 160.197,432.358 160.197,462.482C160.197,494.483 170.242,507.929 195.601,507.929C205.134,507.929 223.347,504.354 223.347,504.354L222.666,486.142C222.666,486.142 209.39,487.506 202.922,487.506C186.582,487.506 183.347,481.548 183.347,462.482C183.347,445.462 186.411,439.165 202.751,439.165Z" style="fill:white;fill-rule:nonzero;"/>
        </g>
        <g transform="matrix(1.69113,0,0,1.69113,335.088,-566.251)">
            <path d="M274.402,488.525C261.806,488.525 258.402,479.676 258.402,463.163C258.402,446.653 261.806,438.143 274.402,438.143C286.999,438.143 290.4,446.653 290.4,463.163C290.4,479.676 286.999,488.525 274.402,488.525ZM274.402,418.739C244.785,418.739 235.252,436.951 235.252,463.163C235.252,489.378 244.785,507.929 274.402,507.929C304.019,507.929 313.552,489.378 313.552,463.163C313.552,436.951 304.019,418.739 274.402,418.739Z" style="fill:white;fill-rule:nonzero;"/>
        </g>
        <g transform="matrix(1.69113,0,0,1.69113,335.088,-566.251)">
            <path d="M334.135,417.036L334.135,420.78L324.948,420.78L324.948,440.184L334.135,440.184L334.135,505.888L356.944,505.888L356.944,440.184L377.544,440.184L377.544,420.78L356.944,420.78L356.944,417.205C356.944,408.526 358.647,405.12 365.117,405.12C370.564,405.12 378.051,405.462 378.051,405.462L378.394,386.907C378.394,386.907 364.605,384.697 358.99,384.697C340.435,384.697 334.135,392.527 334.135,417.036Z" style="fill:white;fill-rule:nonzero;"/>
        </g>
        <g transform="matrix(1.69113,0,0,1.69113,335.088,-566.251)">
            <rect x="391.831" y="386.738" width="22.81" height="119.15" style="fill:white;fill-rule:nonzero;"/>
        </g>
        <g transform="matrix(1.69113,0,0,1.69113,335.088,-566.251)">
            <path d="M468.255,488.525C455.654,488.525 452.252,479.676 452.252,463.163C452.252,446.653 455.654,438.143 468.255,438.143C480.847,438.143 484.253,446.653 484.253,463.163C484.253,479.676 480.847,488.525 468.255,488.525ZM468.255,418.739C438.633,418.739 429.1,436.951 429.1,463.163C429.1,489.378 438.633,507.929 468.255,507.929C497.868,507.929 507.401,489.378 507.401,463.163C507.401,436.951 497.868,418.739 468.255,418.739Z" style="fill:white;fill-rule:nonzero;"/>
        </g>
    </g>
    <g transform="matrix(0.353689,0,0,0.353689,-34.5073,-5.26784)">
        <path d="M397.743,161.499L397.743,315.072L263.938,315.072L263.938,271.368L324.288,257.231L324.288,200.328L263.939,214.437L263.939,192.953L197.68,208.529L197.68,315.072L123.83,315.072L123.83,225.889L97.564,232.063L97.564,341.338L424.009,341.338L424.009,155.325L397.743,161.499Z" style="fill:white;fill-rule:nonzero;"/>
        <path d="M263.938,179.453L263.938,145.82L324.288,131.688L324.288,74.33L197.68,104.092L197.68,195.029L263.938,179.453Z" style="fill:white;fill-rule:nonzero;"/>
        <path d="M123.827,212.39L123.827,41.155L397.744,41.155L397.744,147.999L424.01,141.825L424.01,14.894L97.565,14.894L97.565,218.563L123.827,212.39Z" style="fill:white;fill-rule:nonzero;"/>
    </g>
    <g transform="matrix(0.603183,0,0,0.603183,115.46,-238.157)">
        <path d="M36.011,569.949C36.011,573.667 35.43,575.942 34.271,576.77C33.731,577.151 32.984,577.342 32.031,577.342L29.504,577.342L29.504,543.283L32.031,543.283C33.445,543.283 34.462,543.855 35.081,544.999C35.701,546.143 36.011,548.024 36.011,550.65L36.011,569.949ZM39.109,542.343C37.902,540.363 35.692,539.375 32.483,539.375L24.595,539.375L24.595,581.32L32.317,581.32C35.43,581.32 37.647,580.375 38.966,578.486C40.285,576.592 40.944,573.494 40.944,569.187L40.92,550.767C40.92,547.127 40.316,544.319 39.109,542.343Z" style="fill:white;fill-rule:nonzero;"/>
        <path d="M64.464,569.308C64.464,572.471 64.241,574.634 63.797,575.804C63.353,576.969 62.454,577.554 61.104,577.554C59.754,577.554 58.855,576.978 58.411,575.825C57.967,574.673 57.744,572.502 57.744,569.308L57.744,550.459C57.744,547.833 57.997,545.952 58.506,544.808C59.015,543.664 59.921,543.092 61.223,543.092C62.525,543.092 63.392,543.651 63.821,544.774C64.25,545.892 64.464,547.794 64.464,550.481L64.464,569.308ZM61.271,538.85C58.697,538.85 56.734,539.548 55.384,540.948C53.668,542.728 52.81,546 52.81,550.767L52.81,569.261C52.81,573.615 53.434,576.792 54.682,578.794C55.928,580.795 58.082,581.796 61.139,581.796C64.198,581.796 66.338,580.8 67.563,578.806C68.787,576.813 69.398,573.628 69.398,569.261L69.398,550.767C69.398,547.733 69.088,545.302 68.468,543.474C67.42,540.393 65.021,538.85 61.271,538.85Z" style="fill:white;fill-rule:nonzero;"/>
        <path d="M92.896,569.048C92.896,572.224 92.678,574.447 92.242,575.721C91.804,576.991 90.938,577.628 89.642,577.628C88.349,577.628 87.476,576.995 87.021,575.73C86.57,574.469 86.343,572.246 86.343,569.07L86.343,550.91C86.343,548.223 86.592,546.26 87.094,545.012C87.593,543.764 88.503,543.14 89.822,543.14C90.457,543.14 90.981,543.296 91.395,543.604C91.809,543.916 92.162,544.544 92.454,545.489C92.749,546.433 92.896,548.249 92.896,550.936L92.896,555.607L97.734,555.607L97.734,550.957C97.734,547.924 97.433,545.493 96.829,543.664C95.78,540.488 93.444,538.889 89.822,538.872C87.233,538.889 85.261,539.661 83.912,541.186C83.292,541.884 82.72,542.98 82.196,544.475C81.671,545.97 81.409,548.305 81.409,551.481L81.409,568.953C81.409,573.256 82.044,576.48 83.316,578.616C84.588,580.752 86.715,581.822 89.703,581.822C92.691,581.822 94.783,580.782 95.982,578.711C97.182,576.636 97.782,573.399 97.782,568.996L97.782,564.399L92.896,564.399L92.896,569.048Z" style="fill:white;fill-rule:nonzero;"/>
        <path d="M121.234,570.452C121.234,571.28 121.214,572.35 121.175,573.667C121.134,574.989 120.852,575.981 120.328,576.649C119.804,577.316 118.993,577.65 117.897,577.65C116.801,577.65 116.029,577.346 115.585,576.744C115.332,576.428 115.089,575.994 114.857,575.444C114.628,574.898 114.513,573.225 114.513,570.426L114.513,539.375L109.579,539.375L109.579,570.547C109.579,574.473 110.208,577.333 111.462,579.127C112.717,580.921 114.862,581.822 117.897,581.822C120.932,581.822 123.064,580.921 124.295,579.127C125.528,577.333 126.143,574.473 126.143,570.547L126.143,539.375L121.234,539.375L121.234,570.452Z" style="fill:white;fill-rule:nonzero;"/>
        <path d="M150.974,573.858L144.969,539.375L138.82,539.375L138.82,581.32L143.181,581.32L143.181,564.494L142.776,548.812L148.71,581.25L153.167,581.25L158.863,548.812L158.458,564.494L158.458,581.32L162.843,581.32L162.843,539.375L156.67,539.375L150.974,573.858Z" style="fill:white;fill-rule:nonzero;"/>
        <path d="M180.741,561.92L187.938,561.92L187.938,557.821L180.741,557.821L180.741,543.474L188.343,543.474L188.343,539.375L175.807,539.375L175.807,581.32L188.439,581.32L188.439,577.221L180.741,577.221L180.741,561.92Z" style="fill:white;fill-rule:nonzero;"/>
        <path d="M213.177,555.797L213.677,567.926L203.954,539.375L200.236,539.375L200.236,581.32L204.788,581.32L204.788,563.112L204.502,552.53L213.916,581.32L217.538,581.32L217.538,539.375L213.177,539.375L213.177,555.797Z" style="fill:white;fill-rule:nonzero;"/>
        <path d="M227.688,543.474L232.312,543.474L232.312,581.32L237.221,581.32L237.221,543.474L241.535,543.474L241.535,539.375L227.688,539.375L227.688,543.474Z" style="fill:white;fill-rule:nonzero;"/>
        <path d="M280.787,569.048C280.787,572.224 280.568,574.447 280.133,575.721C279.695,576.991 278.828,577.628 277.533,577.628C276.239,577.628 275.366,576.995 274.911,575.73C274.461,574.469 274.233,572.246 274.233,569.07L274.233,550.91C274.233,548.223 274.482,546.26 274.985,545.012C275.483,543.764 276.393,543.14 277.713,543.14C278.347,543.14 278.872,543.296 279.286,543.604C279.699,543.916 280.053,544.544 280.345,545.489C280.64,546.433 280.787,548.249 280.787,550.936L280.787,555.607L285.625,555.607L285.625,550.957C285.625,547.924 285.322,545.493 284.719,543.664C283.671,540.488 281.335,538.889 277.713,538.872C275.124,538.889 273.152,539.661 271.802,541.186C271.183,541.884 270.611,542.98 270.086,544.475C269.562,545.97 269.3,548.305 269.3,551.481L269.3,568.953C269.3,573.256 269.935,576.48 271.206,578.616C272.478,580.752 274.606,581.822 277.594,581.822C280.581,581.822 282.674,580.782 283.874,578.711C285.07,576.636 285.673,573.399 285.673,568.996L285.673,564.399L280.787,564.399L280.787,569.048Z" style="fill:white;fill-rule:nonzero;"/>
        <path d="M301.991,569.308L305.042,547.144L305.115,547.144L308.426,569.308L301.991,569.308ZM302.013,539.375L295.652,581.32L300.349,581.32L301.441,573.312L309.046,573.312L310.237,581.32L314.883,581.32L307.949,539.375L302.013,539.375Z" style="fill:white;fill-rule:nonzero;"/>
        <path d="M337.359,552.027C337.359,555.399 337.129,557.695 336.67,558.917C336.206,560.139 335.274,560.754 333.879,560.754L330.876,560.754L330.876,543.283L334,543.283C335.335,543.283 336.228,543.885 336.678,545.094C337.129,546.303 337.359,548.344 337.359,551.222L337.359,552.027ZM334.382,539.375L325.941,539.375L325.941,581.32L330.876,581.32L330.876,564.854L334.382,564.854C336.808,564.854 338.62,564.195 339.816,562.886C341.003,561.574 341.757,559.489 342.077,556.629C342.22,555.325 342.294,553.379 342.294,550.788C342.294,548.201 341.991,545.935 341.384,543.998C340.431,540.917 338.1,539.375 334.382,539.375Z" style="fill:white;fill-rule:nonzero;"/>
        <path d="M350.44,543.474L355.064,543.474L355.064,581.32L359.973,581.32L359.973,543.474L364.289,543.474L364.289,539.375L350.44,539.375L350.44,543.474Z" style="fill:white;fill-rule:nonzero;"/>
        <path d="M385.855,570.452C385.855,571.28 385.834,572.35 385.799,573.667C385.756,574.989 385.474,575.981 384.95,576.649C384.425,577.316 383.615,577.65 382.519,577.65C381.422,577.65 380.651,577.346 380.209,576.744C379.954,576.428 379.711,575.994 379.481,575.444C379.247,574.898 379.135,573.225 379.135,570.426L379.135,539.375L374.203,539.375L374.203,570.547C374.203,574.473 374.828,577.333 376.084,579.127C377.341,580.921 379.481,581.822 382.519,581.822C385.556,581.822 387.688,580.921 388.919,579.127C390.15,577.333 390.765,574.473 390.765,570.547L390.765,539.375L385.855,539.375L385.855,570.452Z" style="fill:white;fill-rule:nonzero;"/>
        <path d="M414.857,549.93C414.857,552.14 414.762,553.761 414.571,554.792C414.38,555.828 414.06,556.525 413.618,556.889C413.176,557.258 412.474,557.44 411.521,557.44L408.375,557.44L408.375,543.283L411.473,543.283C412.569,543.283 413.41,543.539 413.99,544.046C414.567,544.553 414.857,546.42 414.857,549.644L414.857,549.93ZM419.433,565.291C419.208,563.268 418.826,561.79 418.289,560.859C417.752,559.931 416.954,559.377 415.906,559.203C417.336,558.774 418.332,557.83 418.896,556.369C419.459,554.905 419.745,553.098 419.745,550.944C419.745,548.791 419.693,547.209 419.598,546.191C419.377,543.712 418.718,541.957 417.622,540.926C416.526,539.89 414.727,539.375 412.236,539.375L403.444,539.375L403.444,581.32L408.375,581.32L408.375,561.062L411.304,561.231C412.5,561.231 413.388,561.469 413.973,561.955C414.563,562.44 414.857,564.186 414.857,567.185C414.857,576.103 414.987,580.813 415.239,581.32L420.148,581.32C419.892,580.652 419.767,578.321 419.767,574.326C419.767,570.331 419.658,567.319 419.433,565.291Z" style="fill:white;fill-rule:nonzero;"/>
        <rect x="432.588" y="539.375" width="4.932" height="41.945" style="fill:white;fill-rule:nonzero;"/>
        <path d="M463.761,555.797L464.26,567.926L454.536,539.375L450.818,539.375L450.818,581.32L455.372,581.32L455.372,563.112L455.086,552.53L464.498,581.32L468.12,581.32L468.12,539.375L463.761,539.375L463.761,555.797Z" style="fill:white;fill-rule:nonzero;"/>
        <path d="M496.979,554.58L496.979,551.338C496.979,548.782 496.815,546.607 496.481,544.821C496.147,543.032 495.411,541.593 494.267,540.506C493.123,539.418 491.268,538.872 488.712,538.872C487.342,538.889 486.09,539.184 484.946,539.756C482.021,541.251 480.561,545.077 480.561,551.243L480.561,568.832C480.561,573.312 481.198,576.579 482.467,578.637C483.737,580.696 485.696,581.727 488.343,581.727C490.987,581.727 492.776,580.509 493.716,578.078L494.384,581.32L496.979,581.32L496.979,559.299L489.045,559.299L489.045,563.112L492.455,563.112L492.455,568.572C492.455,571.908 492.204,574.248 491.702,575.6C491.203,576.952 490.272,577.628 488.915,577.628C487.555,577.628 486.649,576.969 486.185,575.661C485.722,574.348 485.496,572.016 485.496,568.667L485.496,551.031C485.496,548.089 485.756,546.039 486.281,544.878C486.805,543.721 487.706,543.14 488.984,543.14C490.263,543.14 491.121,543.599 491.558,544.522C491.996,545.445 492.213,546.975 492.213,549.124L492.213,554.58L496.979,554.58Z" style="fill:white;fill-rule:nonzero;"/>
    </g>
</svg>
