<?xml version="1.0" encoding="UTF-8" standalone="no"?>
<!DOCTYPE svg PUBLIC "-//W3C//DTD SVG 1.1//EN" "http://www.w3.org/Graphics/SVG/1.1/DTD/svg11.dtd">
<svg width="100%" height="100%" viewBox="0 0 416 116" version="1.1" xmlns="http://www.w3.org/2000/svg" xmlns:xlink="http://www.w3.org/1999/xlink" xml:space="preserve" xmlns:serif="http://www.serif.com/" style="fill-rule:evenodd;clip-rule:evenodd;stroke-linejoin:round;stroke-miterlimit:1.41421;">
    <g transform="matrix(0.579487,0,0,0.579487,118.968,-221.928)">
        <g>
            <g>
                <path d="M36.011,568.949C36.011,572.668 35.43,574.943 34.271,575.77C33.731,576.152 32.983,576.342 32.031,576.342L29.504,576.342L29.504,542.283L32.031,542.283C33.446,542.283 34.461,542.856 35.082,543.999C35.701,545.144 36.011,547.024 36.011,549.65L36.011,568.949ZM39.108,541.343C37.903,539.363 35.692,538.374 32.483,538.374L24.595,538.374L24.595,580.32L32.316,580.32C35.43,580.32 37.647,579.376 38.966,577.486C40.286,575.593 40.944,572.494 40.944,568.187L40.92,549.767C40.92,546.127 40.315,543.319 39.108,541.343Z" style="fill:rgb(96,155,192);fill-rule:nonzero;"/>
                <path d="M64.464,568.309C64.464,571.472 64.241,573.634 63.797,574.803C63.354,575.969 62.453,576.555 61.105,576.555C59.754,576.555 58.856,575.979 58.411,574.825C57.966,573.672 57.743,571.502 57.743,568.309L57.743,549.459C57.743,546.833 57.997,544.952 58.506,543.809C59.015,542.664 59.921,542.092 61.223,542.092C62.525,542.092 63.392,542.652 63.821,543.775C64.25,544.892 64.464,546.794 64.464,549.481L64.464,568.309ZM61.271,537.851C58.697,537.851 56.734,538.548 55.384,539.948C53.668,541.729 52.811,545 52.811,549.767L52.811,568.26C52.811,572.616 53.434,575.791 54.682,577.793C55.928,579.795 58.082,580.796 61.138,580.796C64.198,580.796 66.338,579.8 67.563,577.807C68.786,575.814 69.397,572.628 69.397,568.26L69.397,549.767C69.397,546.734 69.087,544.302 68.468,542.475C67.419,539.394 65.022,537.851 61.271,537.851Z" style="fill:rgb(96,155,192);fill-rule:nonzero;"/>
                <path d="M92.897,568.048C92.897,571.225 92.677,573.448 92.242,574.722C91.804,575.991 90.938,576.628 89.643,576.628C88.349,576.628 87.476,575.995 87.021,574.731C86.57,573.469 86.342,571.246 86.342,568.071L86.342,549.909C86.342,547.224 86.591,545.26 87.094,544.012C87.592,542.765 88.502,542.141 89.822,542.141C90.457,542.141 90.981,542.296 91.396,542.605C91.809,542.916 92.163,543.544 92.455,544.49C92.75,545.434 92.897,547.249 92.897,549.936L92.897,554.608L97.734,554.608L97.734,549.957C97.734,546.924 97.434,544.493 96.829,542.664C95.78,539.489 93.444,537.89 89.822,537.872C87.233,537.89 85.261,538.66 83.912,540.187C83.293,540.883 82.72,541.981 82.195,543.476C81.671,544.97 81.409,547.306 81.409,550.482L81.409,567.953C81.409,572.256 82.044,575.48 83.315,577.616C84.587,579.752 86.715,580.823 89.703,580.823C92.69,580.823 94.783,579.783 95.981,577.711C97.182,575.635 97.782,572.4 97.782,567.996L97.782,563.399L92.897,563.399L92.897,568.048Z" style="fill:rgb(96,155,192);fill-rule:nonzero;"/>
                <path d="M121.233,569.452C121.233,570.281 121.214,571.351 121.175,572.667C121.134,573.99 120.853,574.982 120.328,575.649C119.804,576.317 118.994,576.65 117.896,576.65C116.801,576.65 116.03,576.346 115.585,575.744C115.332,575.428 115.089,574.994 114.857,574.445C114.627,573.899 114.513,572.226 114.513,569.426L114.513,538.374L109.58,538.374L109.58,569.547C109.58,573.473 110.208,576.333 111.462,578.127C112.717,579.921 114.862,580.823 117.896,580.823C120.933,580.823 123.064,579.921 124.294,578.127C125.528,576.333 126.143,573.473 126.143,569.547L126.143,538.374L121.233,538.374L121.233,569.452Z" style="fill:rgb(96,155,192);fill-rule:nonzero;"/>
                <path d="M150.974,572.859L144.968,538.375L138.819,538.375L138.819,580.321L143.181,580.321L143.181,563.494L142.776,547.812L148.71,580.25L153.167,580.25L158.863,547.812L158.457,563.494L158.457,580.321L162.842,580.321L162.842,538.375L156.67,538.375L150.974,572.859Z" style="fill:rgb(96,155,192);fill-rule:nonzero;"/>
                <path d="M180.741,560.92L187.938,560.92L187.938,556.822L180.741,556.822L180.741,542.475L188.344,542.475L188.344,538.374L175.808,538.374L175.808,580.321L188.439,580.321L188.439,576.22L180.741,576.22L180.741,560.92Z" style="fill:rgb(96,155,192);fill-rule:nonzero;"/>
                <path d="M213.177,554.798L213.678,566.927L203.954,538.374L200.236,538.374L200.236,580.32L204.788,580.32L204.788,562.112L204.501,551.531L213.916,580.32L217.538,580.32L217.538,538.374L213.177,538.374L213.177,554.798Z" style="fill:rgb(96,155,192);fill-rule:nonzero;"/>
                <path d="M227.688,542.474L232.312,542.474L232.312,580.32L237.221,580.32L237.221,542.474L241.535,542.474L241.535,538.375L227.688,538.375L227.688,542.474Z" style="fill:rgb(96,155,192);fill-rule:nonzero;"/>
                <path d="M280.787,568.048C280.787,571.225 280.568,573.448 280.133,574.722C279.695,575.991 278.828,576.628 277.533,576.628C276.239,576.628 275.366,575.995 274.911,574.731C274.461,573.469 274.233,571.246 274.233,568.071L274.233,549.909C274.233,547.224 274.482,545.26 274.985,544.012C275.483,542.765 276.393,542.141 277.713,542.141C278.347,542.141 278.872,542.296 279.286,542.605C279.699,542.916 280.053,543.544 280.345,544.49C280.64,545.434 280.787,547.249 280.787,549.936L280.787,554.608L285.625,554.608L285.625,549.957C285.625,546.924 285.322,544.493 284.719,542.664C283.671,539.489 281.335,537.89 277.713,537.872C275.124,537.89 273.152,538.66 271.802,540.187C271.183,540.883 270.611,541.981 270.086,543.476C269.562,544.97 269.3,547.306 269.3,550.482L269.3,567.953C269.3,572.256 269.935,575.48 271.206,577.616C272.478,579.752 274.605,580.823 277.593,580.823C280.581,580.823 282.674,579.783 283.874,577.711C285.07,575.635 285.673,572.4 285.673,567.996L285.673,563.399L280.787,563.399L280.787,568.048Z" style="fill:rgb(96,155,192);fill-rule:nonzero;"/>
                <path d="M301.991,568.309L305.042,546.145L305.115,546.145L308.427,568.309L301.991,568.309ZM302.014,538.374L295.652,580.321L300.35,580.321L301.441,572.313L309.045,572.313L310.237,580.321L314.882,580.321L307.949,538.374L302.014,538.374Z" style="fill:rgb(96,155,192);fill-rule:nonzero;"/>
                <path d="M337.358,551.028C337.358,554.399 337.129,556.696 336.67,557.918C336.206,559.14 335.274,559.755 333.88,559.755L330.877,559.755L330.877,542.283L334.001,542.283C335.335,542.283 336.228,542.886 336.679,544.095C337.129,545.304 337.358,547.345 337.358,550.222L337.358,551.028ZM334.382,538.374L325.94,538.374L325.94,580.32L330.877,580.32L330.877,563.854L334.382,563.854C336.809,563.854 338.619,563.196 339.815,561.887C341.003,560.574 341.757,558.49 342.077,555.63C342.221,554.325 342.295,552.38 342.295,549.788C342.295,547.201 341.99,544.936 341.385,542.998C340.431,539.918 338.1,538.374 334.382,538.374Z" style="fill:rgb(96,155,192);fill-rule:nonzero;"/>
                <path d="M350.44,542.474L355.064,542.474L355.064,580.32L359.974,580.32L359.974,542.474L364.289,542.474L364.289,538.375L350.44,538.375L350.44,542.474Z" style="fill:rgb(96,155,192);fill-rule:nonzero;"/>
                <path d="M385.855,569.452C385.855,570.281 385.833,571.351 385.799,572.667C385.755,573.99 385.475,574.982 384.949,575.649C384.425,576.317 383.615,576.65 382.519,576.65C381.422,576.65 380.651,576.346 380.209,575.744C379.953,575.428 379.71,574.994 379.481,574.445C379.247,573.899 379.135,572.226 379.135,569.426L379.135,538.374L374.203,538.374L374.203,569.547C374.203,573.473 374.827,576.333 376.084,578.127C377.34,579.921 379.481,580.823 382.519,580.823C385.557,580.823 387.688,579.921 388.919,578.127C390.149,576.333 390.765,573.473 390.765,569.547L390.765,538.374L385.855,538.374L385.855,569.452Z" style="fill:rgb(96,155,192);fill-rule:nonzero;"/>
                <path d="M414.857,548.931C414.857,551.141 414.762,552.761 414.571,553.792C414.38,554.827 414.061,555.526 413.618,555.89C413.176,556.257 412.475,556.44 411.521,556.44L408.375,556.44L408.375,542.283L411.474,542.283C412.569,542.283 413.41,542.539 413.99,543.046C414.567,543.553 414.857,545.42 414.857,548.645L414.857,548.931ZM419.434,564.291C419.207,562.269 418.826,560.79 418.289,559.859C417.751,558.932 416.954,558.376 415.906,558.203C417.335,557.775 418.332,556.829 418.896,555.369C419.459,553.906 419.745,552.099 419.745,549.945C419.745,547.79 419.693,546.209 419.598,545.191C419.376,542.712 418.718,540.957 417.621,539.926C416.525,538.891 414.728,538.374 412.235,538.374L403.443,538.374L403.443,580.321L408.375,580.321L408.375,560.063L411.305,560.232C412.5,560.232 413.389,560.469 413.974,560.955C414.563,561.441 414.857,563.187 414.857,566.186C414.857,575.103 414.987,579.814 415.238,580.321L420.148,580.321C419.893,579.653 419.767,577.322 419.767,573.326C419.767,569.331 419.658,566.32 419.434,564.291Z" style="fill:rgb(96,155,192);fill-rule:nonzero;"/>
                <rect x="432.588" y="538.375" width="4.931" height="41.946" style="fill:rgb(96,155,192);fill-rule:nonzero;"/>
                <path d="M463.762,554.798L464.26,566.927L454.536,538.374L450.818,538.374L450.818,580.32L455.372,580.32L455.372,562.112L455.086,551.531L464.498,580.32L468.12,580.32L468.12,538.374L463.762,538.374L463.762,554.798Z" style="fill:rgb(96,155,192);fill-rule:nonzero;"/>
                <path d="M496.979,553.58L496.979,550.339C496.979,547.782 496.814,545.607 496.481,543.822C496.147,542.032 495.41,540.593 494.268,539.506C493.122,538.418 491.269,537.872 488.711,537.872C487.342,537.89 486.09,538.184 484.946,538.756C482.021,540.251 480.562,544.077 480.562,550.244L480.562,567.832C480.562,572.312 481.198,575.58 482.467,577.638C483.737,579.696 485.696,580.727 488.343,580.727C490.986,580.727 492.776,579.51 493.716,577.079L494.384,580.32L496.979,580.32L496.979,558.299L489.045,558.299L489.045,562.112L492.455,562.112L492.455,567.572C492.455,570.908 492.204,573.248 491.701,574.6C491.203,575.952 490.271,576.628 488.915,576.628C487.554,576.628 486.649,575.97 486.186,574.661C485.721,573.348 485.496,571.017 485.496,567.667L485.496,550.031C485.496,547.089 485.756,545.039 486.28,543.878C486.805,542.721 487.706,542.14 488.984,542.14C490.264,542.14 491.121,542.6 491.559,543.523C491.996,544.446 492.213,545.975 492.213,548.125L492.213,553.58L496.979,553.58Z" style="fill:rgb(96,155,192);fill-rule:nonzero;"/>
                <path d="M36.812,420.781L14.173,420.781L14.173,505.888L36.981,505.888L36.981,448.868C36.981,448.868 49.066,444.614 64.046,441.718L64.046,418.74C51.109,421.291 36.812,429.802 36.812,429.802L36.812,420.781Z" style="fill:rgb(134,175,205);fill-rule:nonzero;"/>
                <path d="M96.038,455.675C96.209,442.741 99.953,437.463 110.847,437.463C121.571,437.463 125.484,441.887 125.484,455.675L96.038,455.675ZM110.847,418.74C85.996,418.74 73.23,434.23 73.23,464.529C73.23,495.163 84.124,507.929 109.826,507.929C125.655,507.929 145.23,503.162 145.23,503.162L144.891,486.315C144.891,486.315 127.358,487.845 113.401,487.845C101.146,487.845 96.378,483.251 96.209,473.038L146.251,473.038L147.955,457.209C147.955,431.505 135.868,418.74 110.847,418.74Z" style="fill:rgb(134,175,205);fill-rule:nonzero;"/>
                <path d="M202.751,439.165C209.218,439.165 222.666,440.527 222.666,440.527L223.347,422.483C223.347,422.483 205.986,418.739 196.113,418.739C170.751,418.739 160.197,432.359 160.197,462.483C160.197,494.483 170.241,507.929 195.601,507.929C205.134,507.929 223.347,504.354 223.347,504.354L222.666,486.142C222.666,486.142 209.389,487.507 202.922,487.507C186.582,487.507 183.347,481.549 183.347,462.483C183.347,445.462 186.411,439.165 202.751,439.165Z" style="fill:rgb(134,175,205);fill-rule:nonzero;"/>
                <path d="M274.402,488.525C261.806,488.525 258.402,479.677 258.402,463.163C258.402,446.654 261.806,438.143 274.402,438.143C286.999,438.143 290.4,446.654 290.4,463.163C290.4,479.677 286.999,488.525 274.402,488.525ZM274.402,418.739C244.785,418.739 235.252,436.952 235.252,463.163C235.252,489.379 244.785,507.929 274.402,507.929C304.02,507.929 313.552,489.379 313.552,463.163C313.552,436.952 304.02,418.739 274.402,418.739Z" style="fill:rgb(134,175,205);fill-rule:nonzero;"/>
                <path d="M334.135,417.036L334.135,420.781L324.948,420.781L324.948,440.184L334.135,440.184L334.135,505.888L356.944,505.888L356.944,440.184L377.545,440.184L377.545,420.781L356.944,420.781L356.944,417.205C356.944,408.527 358.647,405.12 365.117,405.12C370.563,405.12 378.052,405.462 378.052,405.462L378.394,386.908C378.394,386.908 364.605,384.698 358.989,384.698C340.435,384.698 334.135,392.529 334.135,417.036Z" style="fill:rgb(38,90,169);fill-rule:nonzero;"/>
                <rect x="391.831" y="386.74" width="22.81" height="119.148" style="fill:rgb(38,90,169);fill-rule:nonzero;"/>
                <path d="M468.255,488.525C455.653,488.525 452.253,479.677 452.253,463.163C452.253,446.654 455.653,438.143 468.255,438.143C480.847,438.143 484.253,446.654 484.253,463.163C484.253,479.677 480.847,488.525 468.255,488.525ZM468.255,418.739C438.634,418.739 429.101,436.952 429.101,463.163C429.101,489.379 438.634,507.929 468.255,507.929C497.867,507.929 507.4,489.379 507.4,463.163C507.4,436.952 497.867,418.739 468.255,418.739Z" style="fill:rgb(38,90,169);fill-rule:nonzero;"/>
            </g>
        </g>
    </g>
    <g transform="matrix(0.355343,0,0,0.355343,-34.6687,-5.29213)">
        <g>
            <g>
                <path d="M397.743,161.5L397.743,315.073L263.938,315.073L263.938,271.367L324.287,257.232L324.287,200.328L263.939,214.437L263.939,192.953L197.68,208.529L197.68,315.073L123.831,315.073L123.831,225.889L97.564,232.064L97.564,341.338L424.01,341.338L424.01,155.325L397.743,161.5Z" style="fill:rgb(134,175,205);fill-rule:nonzero;"/>
                <path d="M263.938,179.453L263.938,145.821L324.287,131.688L324.287,74.33L197.68,104.092L197.68,195.029L263.938,179.453Z" style="fill:rgb(38,90,169);fill-rule:nonzero;"/>
                <path d="M123.827,212.39L123.827,41.156L397.744,41.156L397.744,147.999L424.01,141.825L424.01,14.893L97.565,14.893L97.565,218.563L123.827,212.39Z" style="fill:rgb(38,90,169);fill-rule:nonzero;"/>
            </g>
        </g>
    </g>
</svg>
