<?xml version="1.0" encoding="UTF-8" standalone="no"?>
<svg
   xmlns:dc="http://purl.org/dc/elements/1.1/"
   xmlns:cc="http://creativecommons.org/ns#"
   xmlns:rdf="http://www.w3.org/1999/02/22-rdf-syntax-ns#"
   xmlns:svg="http://www.w3.org/2000/svg"
   xmlns="http://www.w3.org/2000/svg"
   viewBox="0 0 695.4267 793.70667"
   height="793.70667"
   width="695.4267"
   opacity=".9"
   xml:space="preserve"
   id="svg2"
   version="1.1"><metadata
     id="metadata8"><rdf:RDF><cc:Work
         rdf:about=""><dc:format>image/svg+xml</dc:format><dc:type
           rdf:resource="http://purl.org/dc/dcmitype/StillImage" /></cc:Work></rdf:RDF></metadata><defs
     id="defs6" /><g
     transform="matrix(1.3333333,0,0,-1.3333333,0,793.70667)"
     id="g10"><g
       transform="scale(0.1)"
       id="g12"><path
         id="path14"
         style="fill:#ffffff;fill-opacity:1;fill-rule:nonzero;stroke:none"
         d="M 368.129,1752.2 H 141.742 V 901.121 h 228.074 v 570.209 c 0,0 120.852,42.55 270.649,71.49 v 229.79 C 511.102,1747.09 368.129,1661.99 368.129,1661.99 v 90.21" /><path
         id="path16"
         style="fill:#ffffff;fill-opacity:1;fill-rule:nonzero;stroke:none"
         d="m 960.387,1403.25 c 1.707,129.35 39.148,182.12 148.083,182.12 107.25,0 146.37,-44.24 146.37,-182.12 z m 148.083,369.36 c -248.509,0 -376.161,-154.91 -376.161,-457.89 0,-306.35 108.933,-434.009 365.961,-434.009 158.29,0 354.04,47.668 354.04,47.668 l -3.41,168.471 c 0,0 -175.32,-15.29 -314.89,-15.29 -122.56,0 -170.225,45.93 -171.916,148.06 h 500.416 l 17.03,158.29 c 0,257.05 -120.85,384.7 -371.07,384.7" /><path
         id="path18"
         style="fill:#ffffff;fill-opacity:1;fill-rule:nonzero;stroke:none"
         d="m 2027.51,1568.35 c 64.67,0 199.15,-13.61 199.15,-13.61 l 6.81,180.43 c 0,0 -173.61,37.44 -272.34,37.44 -253.62,0 -359.16,-136.19 -359.16,-437.43 0,-320.01 100.45,-454.469 354.04,-454.469 95.33,0 277.46,35.75 277.46,35.75 l -6.81,182.119 c 0,0 -132.76,-13.64 -197.44,-13.64 -163.4,0 -195.75,59.58 -195.75,250.24 0,170.2 30.64,233.17 194.04,233.17" /><path
         id="path20"
         style="fill:#ffffff;fill-opacity:1;fill-rule:nonzero;stroke:none"
         d="m 2744.02,1074.75 c -125.96,0 -160,88.49 -160,253.62 0,165.1 34.04,250.2 160,250.2 125.97,0 159.98,-85.1 159.98,-250.2 0,-165.13 -34.01,-253.62 -159.98,-253.62 z m 0,697.86 c -296.17,0 -391.5,-182.12 -391.5,-444.24 0,-262.15 95.33,-447.659 391.5,-447.659 296.17,0 391.5,185.509 391.5,447.659 0,262.12 -95.33,444.24 -391.5,444.24" /><path
         id="path22"
         style="fill:#ffffff;fill-opacity:1;fill-rule:nonzero;stroke:none"
         d="m 3341.35,1789.64 v -37.44 h -91.87 v -194.04 h 91.87 V 901.121 h 228.09 v 657.039 h 206 v 194.04 h -206 v 35.75 c 0,86.79 17.03,120.85 81.73,120.85 54.47,0 129.34,-3.42 129.34,-3.42 l 3.43,185.55 c 0,0 -137.89,22.1 -194.04,22.1 -185.55,0 -248.55,-78.3 -248.55,-323.39" /><path
         id="path24"
         style="fill:#ffffff;fill-opacity:1;fill-rule:nonzero;stroke:none"
         d="m 3918.31,901.121 h 228.1 V 2092.62 h -228.1 V 901.121" /><path
         id="path26"
         style="fill:#ffffff;fill-opacity:1;fill-rule:nonzero;stroke:none"
         d="m 4682.55,1074.75 c -126.01,0 -160.03,88.49 -160.03,253.62 0,165.1 34.02,250.2 160.03,250.2 125.92,0 159.98,-85.1 159.98,-250.2 0,-165.13 -34.06,-253.62 -159.98,-253.62 z m 0,697.86 c -296.22,0 -391.55,-182.12 -391.55,-444.24 0,-262.15 95.33,-447.659 391.55,-447.659 296.13,0 391.46,185.509 391.46,447.659 0,262.12 -95.33,444.24 -391.46,444.24" /><path
         id="path28"
         style="fill:#ffffff;fill-opacity:1;fill-rule:nonzero;stroke:none"
         d="m 360.109,260.512 c 0,-37.18 -5.804,-59.93 -17.394,-68.211 -5.395,-3.813 -12.871,-5.719 -22.402,-5.719 h -25.262 v 340.59 h 25.262 c 14.148,0 24.308,-5.723 30.503,-17.16 6.196,-11.442 9.293,-30.25 9.293,-56.512 z m 30.985,276.058 c -12.067,19.801 -34.168,29.68 -66.254,29.68 H 245.953 V 146.801 h 77.219 c 31.133,0 53.297,9.449 66.492,28.34 13.195,18.941 19.781,49.922 19.781,92.988 l -0.238,184.203 c 0,36.398 -6.047,64.477 -18.113,84.238" /><path
         id="path30"
         style="fill:#ffffff;fill-opacity:1;fill-rule:nonzero;stroke:none"
         d="m 644.648,266.922 c 0,-31.633 -2.23,-53.262 -6.671,-64.961 -4.442,-11.652 -13.434,-17.5 -26.93,-17.5 -13.5,0 -22.492,5.758 -26.934,17.289 -4.441,11.52 -6.672,33.23 -6.672,65.172 V 455.41 c 0,26.262 2.536,45.07 7.625,56.512 5.094,11.437 14.149,17.16 27.168,17.16 13.024,0 21.692,-5.594 25.981,-16.82 4.289,-11.18 6.433,-30.199 6.433,-57.071 z M 612.711,571.5 c -25.738,0 -45.367,-6.98 -58.863,-20.98 C 536.688,532.719 528.109,500 528.109,452.332 V 267.391 c 0,-43.539 6.239,-75.309 18.715,-95.328 12.461,-20.012 33.996,-30.024 64.567,-30.024 30.593,0 52,9.961 64.238,29.902 12.242,19.93 18.351,51.778 18.351,95.45 v 184.941 c 0,30.34 -3.097,54.648 -9.292,72.93 -10.489,30.808 -34.473,46.238 -71.977,46.238" /><path
         id="path32"
         style="fill:#ffffff;fill-opacity:1;fill-rule:nonzero;stroke:none"
         d="m 928.969,269.52 c 0,-31.758 -2.188,-53.989 -6.543,-66.731 -4.375,-12.699 -13.043,-19.07 -26,-19.07 -12.934,0 -21.664,6.332 -26.215,18.98 -4.508,12.61 -6.781,34.84 -6.781,66.602 v 181.601 c 0,26.868 2.492,46.5 7.515,58.977 4.985,12.48 14.086,18.723 27.282,18.723 6.347,0 11.589,-1.563 15.726,-4.641 4.141,-3.121 7.672,-9.398 10.594,-18.852 2.949,-9.437 4.422,-27.597 4.422,-54.468 V 403.93 h 48.379 v 46.5 c 0,30.332 -3.012,54.64 -9.055,72.929 -10.488,31.762 -33.844,47.75 -70.066,47.922 -25.891,-0.172 -45.61,-7.89 -59.106,-23.14 -6.195,-6.981 -11.918,-17.942 -17.16,-32.891 -5.242,-14.949 -7.863,-38.301 -7.863,-70.059 V 270.473 c 0,-43.032 6.347,-75.274 19.062,-96.633 12.719,-21.36 33.996,-32.059 63.875,-32.059 29.875,0 50.805,10.399 62.785,31.11 12.004,20.75 18.004,53.121 18.004,97.148 v 45.973 H 928.969 V 269.52" /><path
         id="path34"
         style="fill:#ffffff;fill-opacity:1;fill-rule:nonzero;stroke:none"
         d="m 1212.34,255.48 c 0,-8.281 -0.2,-18.98 -0.59,-32.148 -0.41,-13.223 -3.23,-23.141 -8.47,-29.82 -5.24,-6.672 -13.35,-10.012 -24.31,-10.012 -10.96,0 -18.68,3.039 -23.12,9.063 -2.53,3.156 -4.96,7.5 -7.28,12.996 -2.29,5.461 -3.44,22.191 -3.44,50.183 V 566.25 h -49.34 V 254.531 c 0,-39.261 6.29,-67.859 18.83,-85.801 12.55,-17.941 34,-26.949 64.35,-26.949 30.35,0 51.67,9.008 63.98,26.949 12.33,17.942 18.48,46.54 18.48,85.801 V 566.25 h -49.09 V 255.48" /><path
         id="path36"
         style="fill:#ffffff;fill-opacity:1;fill-rule:nonzero;stroke:none"
         d="M 1509.74,221.422 1449.69,566.25 H 1388.2 V 146.801 h 43.61 v 168.262 l -4.05,156.816 59.34,-324.379 h 44.57 l 56.96,324.379 -4.05,-156.816 V 146.801 h 43.85 V 566.25 h -61.73 l -56.96,-344.828" /><path
         id="path38"
         style="fill:#ffffff;fill-opacity:1;fill-rule:nonzero;stroke:none"
         d="m 1807.41,340.801 h 71.97 v 40.988 h -71.97 v 143.473 h 76.02 V 566.25 H 1758.07 V 146.801 h 126.32 v 40.988 h -76.98 v 153.012" /><path
         id="path40"
         style="fill:#ffffff;fill-opacity:1;fill-rule:nonzero;stroke:none"
         d="m 2131.77,402.031 5,-121.289 -97.23,285.508 h -37.18 V 146.801 h 45.52 v 182.078 l -2.86,105.82 94.14,-287.898 h 36.22 V 566.25 h -43.61 V 402.031" /><path
         id="path42"
         style="fill:#ffffff;fill-opacity:1;fill-rule:nonzero;stroke:none"
         d="m 2276.88,525.262 h 46.24 V 146.801 h 49.09 v 378.461 h 43.14 v 40.988 h -138.47 v -40.988" /><path
         id="path44"
         style="fill:#ffffff;fill-opacity:1;fill-rule:nonzero;stroke:none"
         d="m 2807.87,269.52 c 0,-31.758 -2.19,-53.989 -6.54,-66.731 -4.38,-12.699 -13.05,-19.07 -26,-19.07 -12.94,0 -21.67,6.332 -26.22,18.98 -4.5,12.61 -6.78,34.84 -6.78,66.602 v 181.601 c 0,26.868 2.49,46.5 7.52,58.977 4.98,12.48 14.08,18.723 27.28,18.723 6.34,0 11.59,-1.563 15.73,-4.641 4.13,-3.121 7.67,-9.398 10.59,-18.852 2.95,-9.437 4.42,-27.597 4.42,-54.468 V 403.93 h 48.38 v 46.5 c 0,30.332 -3.03,54.64 -9.06,72.929 -10.48,31.762 -33.84,47.75 -70.06,47.922 -25.89,-0.172 -45.61,-7.89 -59.11,-23.14 -6.19,-6.981 -11.91,-17.942 -17.16,-32.891 -5.24,-14.949 -7.86,-38.301 -7.86,-70.059 V 270.473 c 0,-43.032 6.35,-75.274 19.06,-96.633 12.72,-21.36 34,-32.059 63.88,-32.059 29.87,0 50.8,10.399 62.8,31.11 11.96,20.75 17.99,53.121 17.99,97.148 v 45.973 h -48.86 V 269.52" /><path
         id="path46"
         style="fill:#ffffff;fill-opacity:1;fill-rule:nonzero;stroke:none"
         d="m 3019.91,266.922 30.51,221.637 h 0.73 l 33.11,-221.637 z m 0.22,299.328 -63.61,-419.449 h 46.97 l 10.92,80.078 h 76.05 l 11.91,-80.078 h 46.46 l -69.34,419.449 h -59.36" /><path
         id="path48"
         style="fill:#ffffff;fill-opacity:1;fill-rule:nonzero;stroke:none"
         d="m 3373.59,439.73 c 0,-33.718 -2.3,-56.679 -6.89,-68.898 -4.64,-12.223 -13.96,-18.371 -27.91,-18.371 h -30.03 V 527.172 H 3340 c 13.35,0 22.28,-6.02 26.78,-18.113 4.51,-12.09 6.81,-32.5 6.81,-61.278 z m -29.77,126.52 h -84.41 V 146.801 h 49.35 v 164.66 h 35.06 c 24.26,0 42.38,6.59 54.34,19.68 11.87,13.121 19.41,33.968 22.61,62.57 1.43,13.039 2.17,32.5 2.17,58.41 0,25.871 -3.03,48.527 -9.1,67.899 -9.53,30.812 -32.84,46.23 -70.02,46.23" /><path
         id="path50"
         style="fill:#ffffff;fill-opacity:1;fill-rule:nonzero;stroke:none"
         d="m 3504.4,525.262 h 46.24 V 146.801 h 49.09 v 378.461 h 43.16 V 566.25 H 3504.4 v -40.988" /><path
         id="path52"
         style="fill:#ffffff;fill-opacity:1;fill-rule:nonzero;stroke:none"
         d="m 3858.55,255.48 c 0,-8.281 -0.21,-18.98 -0.56,-32.148 -0.43,-13.223 -3.25,-23.141 -8.49,-29.82 -5.25,-6.672 -13.35,-10.012 -24.31,-10.012 -10.97,0 -18.68,3.039 -23.1,9.063 -2.55,3.156 -4.98,7.5 -7.28,12.996 -2.34,5.461 -3.46,22.191 -3.46,50.183 V 566.25 h -49.32 V 254.531 c 0,-39.261 6.25,-67.859 18.81,-85.801 12.57,-17.941 33.97,-26.949 64.35,-26.949 30.37,0 51.69,9.008 64,26.949 12.31,17.942 18.46,46.54 18.46,85.801 V 566.25 h -49.1 V 255.48" /><path
         id="path54"
         style="fill:#ffffff;fill-opacity:1;fill-rule:nonzero;stroke:none"
         d="m 4148.57,460.699 c 0,-22.097 -0.95,-38.308 -2.86,-48.617 -1.91,-10.359 -5.11,-17.332 -9.53,-20.973 -4.42,-3.687 -11.44,-5.507 -20.97,-5.507 h -31.46 v 141.57 h 30.98 c 10.96,0 19.37,-2.563 25.17,-7.633 5.77,-5.07 8.67,-23.738 8.67,-55.98 z m 45.76,-153.609 c -2.25,20.23 -6.07,35.012 -11.44,44.32 -5.37,9.281 -13.35,14.82 -23.83,16.563 14.3,4.289 24.26,13.726 29.9,28.34 5.63,14.636 8.49,32.707 8.49,54.246 0,21.531 -0.52,37.351 -1.47,47.531 -2.21,24.789 -8.8,42.34 -19.76,52.652 -10.96,10.36 -28.95,15.508 -53.86,15.508 h -87.92 V 146.801 h 49.31 v 202.578 l 29.29,-1.688 c 11.96,0 20.84,-2.382 26.69,-7.242 5.9,-4.847 8.84,-22.308 8.84,-52.301 0,-89.179 1.3,-136.277 3.82,-141.347 h 49.09 c -2.56,6.679 -3.81,29.988 -3.81,69.941 0,39.949 -1.09,70.067 -3.34,90.348" /><path
         id="path56"
         style="fill:#ffffff;fill-opacity:1;fill-rule:nonzero;stroke:none"
         d="m 4325.88,146.801 h 49.32 V 566.25 h -49.32 V 146.801" /><path
         id="path58"
         style="fill:#ffffff;fill-opacity:1;fill-rule:nonzero;stroke:none"
         d="m 4637.61,402.031 4.99,-121.289 -97.24,285.508 h -37.18 V 146.801 h 45.54 v 182.078 l -2.86,105.82 94.12,-287.898 h 36.22 V 566.25 h -43.59 V 402.031" /><path
         id="path60"
         style="fill:#ffffff;fill-opacity:1;fill-rule:nonzero;stroke:none"
         d="m 4969.79,414.199 v 32.422 c 0,25.559 -1.64,47.309 -4.98,65.168 -3.34,17.891 -10.7,32.281 -22.14,43.152 -11.44,10.879 -29.99,16.34 -55.55,16.34 -13.7,-0.172 -26.22,-3.121 -37.66,-8.84 -29.25,-14.949 -43.85,-53.211 -43.85,-114.871 V 271.68 c 0,-44.801 6.37,-77.469 19.06,-98.051 12.7,-20.59 32.29,-30.899 58.76,-30.899 26.44,0 44.33,12.18 53.73,36.493 l 6.68,-32.422 h 25.95 v 220.211 h -79.34 v -38.133 h 34.1 v -54.598 c 0,-33.359 -2.51,-56.761 -7.53,-70.281 -4.99,-13.52 -14.3,-20.281 -27.87,-20.281 -13.6,0 -22.66,6.59 -27.3,19.672 -4.63,13.129 -6.89,36.449 -6.89,69.941 v 176.359 c 0,29.418 2.6,49.918 7.85,61.528 5.24,11.57 14.25,17.383 27.03,17.383 12.79,0 21.37,-4.59 25.74,-13.821 4.38,-9.23 6.55,-24.531 6.55,-46.019 v -54.563 h 47.66" /><path
         id="path62"
         style="fill:#ffffff;fill-opacity:1;fill-rule:nonzero;stroke:none"
         d="M 3977.43,4345.01 V 2809.28 H 2639.38 v 437.04 l 603.5,141.37 v 569.03 l -603.49,-141.09 v 214.84 L 1976.8,3874.71 V 2809.28 h -738.5 v 891.83 L 975.645,3639.37 V 2546.62 H 4240.09 v 1860.13 l -262.66,-61.74" /><path
         id="path64"
         style="fill:#ffffff;fill-opacity:1;fill-rule:nonzero;stroke:none"
         d="m 2639.38,4165.47 v 336.33 l 603.5,141.32 V 5216.7 L 1976.8,4919.08 v -909.37 l 662.58,155.76" /><path
         id="path66"
         style="fill:#ffffff;fill-opacity:1;fill-rule:nonzero;stroke:none"
         d="M 1238.27,3836.1 V 5548.45 H 3977.44 V 4480.01 l 262.66,61.74 V 5811.07 H 975.652 v -2036.7 l 262.618,61.73" /></g></g></svg>