<?xml version="1.0" encoding="UTF-8" standalone="no"?>
<svg
   xmlns:dc="http://purl.org/dc/elements/1.1/"
   xmlns:cc="http://creativecommons.org/ns#"
   xmlns:rdf="http://www.w3.org/1999/02/22-rdf-syntax-ns#"
   xmlns:svg="http://www.w3.org/2000/svg"
   xmlns="http://www.w3.org/2000/svg"
   viewBox="0 0 695.44 793.70667"
   height="793.70667"
   width="695.44"
   xml:space="preserve"
   id="svg2"
   version="1.1"><metadata
     id="metadata8"><rdf:RDF><cc:Work
         rdf:about=""><dc:format>image/svg+xml</dc:format><dc:type
           rdf:resource="http://purl.org/dc/dcmitype/StillImage" /></cc:Work></rdf:RDF></metadata><defs
     id="defs6" /><g
     transform="matrix(1.3333333,0,0,-1.3333333,0,793.70667)"
     id="g10"><g
       transform="scale(0.1)"
       id="g12"><path
         id="path14"
         style="fill:#659bc4;fill-opacity:1;fill-rule:nonzero;stroke:none"
         d="m 360.113,270.512 c 0,-37.192 -5.812,-59.942 -17.402,-68.211 -5.391,-3.821 -12.871,-5.719 -22.398,-5.719 h -25.262 v 340.59 h 25.262 c 14.152,0 24.304,-5.731 30.507,-17.16 6.192,-11.453 9.293,-30.25 9.293,-56.512 z M 391.09,546.57 c -12.059,19.801 -34.16,29.692 -66.25,29.692 H 245.953 V 156.801 h 77.215 c 31.133,0 53.301,9.441 66.496,28.34 13.195,18.929 19.777,49.922 19.777,92.988 l -0.23,184.203 c 0,36.398 -6.051,64.477 -18.121,84.238" /><path
         id="path16"
         style="fill:#659bc4;fill-opacity:1;fill-rule:nonzero;stroke:none"
         d="m 644.648,276.91 c 0,-31.629 -2.23,-53.25 -6.668,-64.941 -4.441,-11.66 -13.445,-17.52 -26.929,-17.52 -13.5,0 -22.492,5.762 -26.934,17.301 -4.449,11.531 -6.679,33.23 -6.679,65.16 v 188.5 c 0,26.262 2.539,45.07 7.628,56.5 5.09,11.449 14.153,17.172 27.168,17.172 13.024,0 21.692,-5.602 25.985,-16.832 4.281,-11.168 6.429,-30.187 6.429,-57.059 z m -31.937,304.582 c -25.734,0 -45.363,-6.972 -58.863,-20.972 -17.16,-17.809 -25.739,-50.52 -25.739,-98.188 v -184.93 c 0,-43.562 6.239,-75.312 18.715,-95.332 12.461,-20.019 33.996,-30.031 64.563,-30.031 30.601,0 52.004,9.961 64.242,29.891 12.238,19.929 18.351,51.789 18.351,95.472 v 184.93 c 0,30.328 -3.101,54.648 -9.292,72.918 -10.489,30.809 -34.469,46.242 -71.977,46.242" /><path
         id="path18"
         style="fill:#659bc4;fill-opacity:1;fill-rule:nonzero;stroke:none"
         d="m 928.969,279.52 c 0,-31.77 -2.192,-54 -6.543,-66.739 -4.379,-12.691 -13.047,-19.062 -25.996,-19.062 -12.938,0 -21.668,6.332 -26.219,18.972 -4.504,12.618 -6.781,34.848 -6.781,66.598 V 460.91 c 0,26.852 2.488,46.492 7.515,58.969 4.985,12.473 14.082,18.711 27.282,18.711 6.343,0 11.593,-1.551 15.734,-4.641 4.129,-3.109 7.672,-9.386 10.59,-18.847 2.949,-9.442 4.418,-27.59 4.418,-54.461 v -46.719 h 48.379 v 46.508 c 0,30.332 -3.008,54.64 -9.055,72.929 -10.484,31.75 -33.844,47.743 -70.066,47.922 -25.887,-0.179 -45.61,-7.879 -59.106,-23.152 -6.191,-6.957 -11.914,-17.938 -17.164,-32.887 -5.238,-14.941 -7.859,-38.301 -7.859,-70.062 V 280.473 c 0,-43.032 6.351,-75.274 19.062,-96.633 12.719,-21.36 33.996,-32.07 63.871,-32.07 29.879,0 50.805,10.402 62.789,31.121 12,20.761 18.008,53.109 18.008,97.148 v 45.973 H 928.969 V 279.52" /><path
         id="path20"
         style="fill:#659bc4;fill-opacity:1;fill-rule:nonzero;stroke:none"
         d="m 1212.33,265.48 c 0,-8.289 -0.19,-18.988 -0.58,-32.148 -0.41,-13.23 -3.22,-23.152 -8.47,-29.82 -5.24,-6.68 -13.34,-10.012 -24.32,-10.012 -10.95,0 -18.66,3.039 -23.11,9.063 -2.53,3.156 -4.96,7.5 -7.28,12.988 -2.3,5.461 -3.44,22.191 -3.44,50.191 v 310.52 H 1095.8 V 264.531 c 0,-39.261 6.28,-67.859 18.82,-85.801 12.55,-17.941 34,-26.96 64.34,-26.96 30.37,0 51.68,9.019 63.98,26.96 12.34,17.942 18.49,46.54 18.49,85.801 v 311.731 h -49.1 V 265.48" /><path
         id="path22"
         style="fill:#659bc4;fill-opacity:1;fill-rule:nonzero;stroke:none"
         d="m 1509.74,231.41 -60.06,344.84 h -61.49 V 156.789 h 43.62 v 168.274 l -4.05,156.816 59.34,-324.379 h 44.57 l 56.96,324.379 -4.06,-156.816 V 156.789 h 43.85 V 576.25 h -61.72 l -56.96,-344.84" /><path
         id="path24"
         style="fill:#659bc4;fill-opacity:1;fill-rule:nonzero;stroke:none"
         d="m 1807.41,350.801 h 71.97 v 40.98 h -71.97 V 535.25 h 76.03 v 41.012 H 1758.08 V 156.789 h 126.31 v 41.012 h -76.98 v 153" /><path
         id="path26"
         style="fill:#659bc4;fill-opacity:1;fill-rule:nonzero;stroke:none"
         d="m 2131.77,412.02 5.01,-121.29 -97.24,285.532 h -37.18 V 156.801 h 45.52 v 182.078 l -2.87,105.812 94.15,-287.89 h 36.22 v 419.461 h -43.61 V 412.02" /><path
         id="path28"
         style="fill:#659bc4;fill-opacity:1;fill-rule:nonzero;stroke:none"
         d="m 2276.88,535.262 h 46.24 V 156.801 h 49.09 v 378.461 h 43.14 v 40.988 h -138.47 v -40.988" /><path
         id="path30"
         style="fill:#659bc4;fill-opacity:1;fill-rule:nonzero;stroke:none"
         d="m 2807.87,279.52 c 0,-31.77 -2.19,-54 -6.54,-66.739 -4.38,-12.691 -13.05,-19.062 -26,-19.062 -12.94,0 -21.67,6.332 -26.22,18.972 -4.5,12.618 -6.78,34.848 -6.78,66.598 V 460.91 c 0,26.852 2.49,46.492 7.52,58.969 4.98,12.473 14.08,18.711 27.28,18.711 6.34,0 11.59,-1.551 15.73,-4.641 4.13,-3.109 7.67,-9.386 10.59,-18.847 2.95,-9.442 4.42,-27.59 4.42,-54.461 v -46.719 h 48.38 v 46.508 c 0,30.332 -3.03,54.64 -9.06,72.929 -10.48,31.75 -33.84,47.743 -70.06,47.922 -25.89,-0.179 -45.61,-7.879 -59.11,-23.152 -6.19,-6.957 -11.91,-17.938 -17.16,-32.887 -5.24,-14.941 -7.86,-38.301 -7.86,-70.062 V 280.473 c 0,-43.032 6.35,-75.274 19.06,-96.633 12.72,-21.36 33.99,-32.07 63.87,-32.07 29.88,0 50.81,10.402 62.81,31.121 11.96,20.761 17.99,53.109 17.99,97.148 v 45.973 h -48.86 V 279.52" /><path
         id="path32"
         style="fill:#659bc4;fill-opacity:1;fill-rule:nonzero;stroke:none"
         d="m 3019.91,276.91 30.51,221.641 h 0.73 l 33.12,-221.641 z m 0.23,299.352 -63.62,-419.473 h 46.98 l 10.91,80.082 h 76.04 l 11.92,-80.082 h 46.45 l -69.33,419.473 h -59.35" /><path
         id="path34"
         style="fill:#659bc4;fill-opacity:1;fill-rule:nonzero;stroke:none"
         d="m 3373.58,449.719 c 0,-33.707 -2.29,-56.68 -6.88,-68.899 -4.64,-12.218 -13.96,-18.371 -27.9,-18.371 h -30.03 v 174.723 h 31.24 c 13.34,0 22.27,-6.031 26.78,-18.121 4.5,-12.09 6.79,-32.5 6.79,-61.27 z m -29.76,126.543 H 3259.4 V 156.801 h 49.37 v 164.66 h 35.05 c 24.27,0 42.37,6.578 54.33,19.668 11.88,13.133 19.42,33.973 22.62,62.57 1.44,13.051 2.18,32.5 2.18,58.422 0,25.871 -3.05,48.52 -9.1,67.899 -9.54,30.8 -32.85,46.242 -70.03,46.242" /><path
         id="path36"
         style="fill:#659bc4;fill-opacity:1;fill-rule:nonzero;stroke:none"
         d="m 3504.4,535.262 h 46.24 V 156.801 h 49.1 v 378.461 h 43.15 V 576.25 H 3504.4 v -40.988" /><path
         id="path38"
         style="fill:#659bc4;fill-opacity:1;fill-rule:nonzero;stroke:none"
         d="m 3858.55,265.48 c 0,-8.289 -0.22,-18.988 -0.56,-32.148 -0.44,-13.23 -3.24,-23.152 -8.5,-29.82 -5.24,-6.68 -13.34,-10.012 -24.3,-10.012 -10.97,0 -18.68,3.039 -23.1,9.063 -2.56,3.156 -4.99,7.5 -7.28,12.988 -2.34,5.461 -3.46,22.191 -3.46,50.191 v 310.52 h -49.32 V 264.531 c 0,-39.261 6.24,-67.859 18.81,-85.801 12.56,-17.941 33.97,-26.96 64.35,-26.96 30.38,0 51.69,9.019 64,26.96 12.3,17.942 18.46,46.54 18.46,85.801 v 311.731 h -49.1 V 265.48" /><path
         id="path40"
         style="fill:#659bc4;fill-opacity:1;fill-rule:nonzero;stroke:none"
         d="m 4148.57,470.691 c 0,-22.101 -0.95,-38.3 -2.86,-48.609 -1.91,-10.352 -5.1,-17.344 -9.53,-20.98 -4.42,-3.672 -11.43,-5.5 -20.97,-5.5 h -31.46 v 141.57 h 30.99 c 10.95,0 19.36,-2.563 25.16,-7.633 5.77,-5.07 8.67,-23.738 8.67,-55.988 z m 45.77,-153.601 c -2.27,20.219 -6.08,35.012 -11.45,44.32 -5.38,9.27 -13.35,14.832 -23.83,16.563 14.29,4.277 24.26,13.738 29.9,28.34 5.63,14.628 8.49,32.699 8.49,54.238 0,21.551 -0.52,37.359 -1.47,47.539 -2.22,24.789 -8.8,42.34 -19.77,52.652 -10.96,10.348 -28.93,15.52 -53.86,15.52 h -87.92 V 156.789 h 49.32 v 202.582 l 29.3,-1.691 c 11.95,0 20.84,-2.371 26.69,-7.231 5.89,-4.859 8.83,-22.32 8.83,-52.308 0,-89.172 1.3,-136.282 3.81,-141.352 h 49.1 c -2.55,6.68 -3.81,29.992 -3.81,69.953 0,39.949 -1.09,70.059 -3.33,90.348" /><path
         id="path42"
         style="fill:#659bc4;fill-opacity:1;fill-rule:nonzero;stroke:none"
         d="m 4325.88,156.789 h 49.31 V 576.25 h -49.31 V 156.789" /><path
         id="path44"
         style="fill:#659bc4;fill-opacity:1;fill-rule:nonzero;stroke:none"
         d="m 4637.62,412.02 4.98,-121.29 -97.24,285.532 h -37.18 V 156.801 h 45.54 v 182.078 l -2.86,105.812 94.12,-287.89 h 36.22 v 419.461 h -43.58 V 412.02" /><path
         id="path46"
         style="fill:#659bc4;fill-opacity:1;fill-rule:nonzero;stroke:none"
         d="m 4969.79,424.199 v 32.41 c 0,25.571 -1.65,47.321 -4.98,65.172 -3.34,17.899 -10.71,32.289 -22.13,43.16 -11.46,10.879 -29.99,16.34 -55.57,16.34 -13.69,-0.179 -26.21,-3.121 -37.65,-8.84 -29.25,-14.949 -43.84,-53.211 -43.84,-114.878 V 281.68 c 0,-44.801 6.36,-77.481 19.05,-98.059 12.7,-20.582 32.29,-30.891 58.76,-30.891 26.43,0 44.33,12.172 53.73,36.481 l 6.68,-32.41 h 25.95 v 220.211 h -79.34 v -38.133 h 34.1 v -54.598 c 0,-33.359 -2.51,-56.761 -7.54,-70.281 -4.98,-13.52 -14.3,-20.281 -27.86,-20.281 -13.61,0 -22.66,6.582 -27.29,19.672 -4.65,13.129 -6.9,36.441 -6.9,69.941 v 176.359 c 0,29.418 2.6,49.918 7.84,61.528 5.25,11.57 14.26,17.383 27.04,17.383 12.8,0 21.37,-4.602 25.75,-13.832 4.37,-9.231 6.54,-24.52 6.54,-46.02 v -54.551 h 47.66" /><path
         id="path48"
         style="fill:#89afd0;fill-opacity:1;fill-rule:nonzero;stroke:none"
         d="M 368.125,1752.19 H 141.738 V 901.121 H 369.82 v 570.199 c 0,0 120.848,42.54 270.649,71.5 V 1772.6 C 511.098,1747.09 368.125,1661.98 368.125,1661.98 v 90.21" /><path
         id="path50"
         style="fill:#89afd0;fill-opacity:1;fill-rule:nonzero;stroke:none"
         d="m 960.387,1403.25 c 1.707,129.34 39.148,182.12 148.083,182.12 107.24,0 146.37,-44.24 146.37,-182.12 z m 148.083,369.35 c -248.505,0 -376.165,-154.9 -376.165,-457.89 0,-306.34 108.941,-433.999 365.955,-433.999 158.29,0 354.04,47.668 354.04,47.668 l -3.39,168.471 c 0,0 -175.33,-15.3 -314.9,-15.3 -122.55,0 -170.225,45.94 -171.916,148.07 h 500.416 l 17.04,158.29 c 0,257.04 -120.87,384.69 -371.08,384.69" /><path
         id="path52"
         style="fill:#89afd0;fill-opacity:1;fill-rule:nonzero;stroke:none"
         d="m 2027.51,1568.35 c 64.67,0 199.15,-13.62 199.15,-13.62 l 6.81,180.44 c 0,0 -173.61,37.44 -272.34,37.44 -253.62,0 -359.16,-136.2 -359.16,-437.44 0,-320 100.44,-454.459 354.04,-454.459 95.33,0 277.46,35.75 277.46,35.75 l -6.81,182.119 c 0,0 -132.77,-13.65 -197.44,-13.65 -163.4,0 -195.75,59.58 -195.75,250.24 0,170.21 30.64,233.18 194.04,233.18" /><path
         id="path54"
         style="fill:#89afd0;fill-opacity:1;fill-rule:nonzero;stroke:none"
         d="m 2744.02,1074.75 c -125.96,0 -160,88.48 -160,253.62 0,165.09 34.04,250.2 160,250.2 125.97,0 159.98,-85.11 159.98,-250.2 0,-165.14 -34.01,-253.62 -159.98,-253.62 m 0,697.86 c -296.17,0 -391.5,-182.13 -391.5,-444.24 0,-262.16 95.33,-447.659 391.5,-447.659 296.18,0 391.5,185.499 391.5,447.659 0,262.11 -95.32,444.24 -391.5,444.24" /><path
         id="path56"
         style="fill:#89afd0;fill-opacity:1;fill-rule:nonzero;stroke:none"
         d="M 3977.43,4345 V 2809.27 H 2639.38 v 437.06 l 603.49,141.35 v 569.04 l -603.48,-141.09 v 214.84 L 1976.8,3874.71 V 2809.27 h -738.49 v 891.84 L 975.645,3639.36 V 2546.62 H 4240.1 V 4406.75 L 3977.43,4345" /><path
         id="path58"
         style="fill:#3453ad;fill-opacity:1;fill-rule:nonzero;stroke:none"
         d="m 3341.35,1789.64 v -37.45 h -91.87 v -194.03 h 91.87 V 901.121 h 228.09 v 657.039 h 206.01 v 194.03 h -206.01 v 35.76 c 0,86.78 17.03,120.85 81.73,120.85 54.46,0 129.35,-3.42 129.35,-3.42 l 3.42,185.54 c 0,0 -137.89,22.1 -194.05,22.1 -185.54,0 -248.54,-78.31 -248.54,-323.38" /><path
         id="path60"
         style="fill:#3453ad;fill-opacity:1;fill-rule:nonzero;stroke:none"
         d="m 3918.31,901.121 h 228.1 V 2092.6 h -228.1 V 901.121" /><path
         id="path62"
         style="fill:#3453ad;fill-opacity:1;fill-rule:nonzero;stroke:none"
         d="m 4682.55,1074.75 c -126.02,0 -160.02,88.48 -160.02,253.62 0,165.09 34,250.2 160.02,250.2 125.92,0 159.98,-85.11 159.98,-250.2 0,-165.14 -34.06,-253.62 -159.98,-253.62 m 0,697.86 c -296.21,0 -391.54,-182.13 -391.54,-444.24 0,-262.16 95.33,-447.659 391.54,-447.659 296.12,0 391.45,185.499 391.45,447.659 0,262.11 -95.33,444.24 -391.45,444.24" /><path
         id="path64"
         style="fill:#3453ad;fill-opacity:1;fill-rule:nonzero;stroke:none"
         d="m 2639.38,4165.47 v 336.32 l 603.49,141.33 v 573.59 L 1976.8,4919.08 v -909.37 l 662.58,155.76" /><path
         id="path66"
         style="fill:#3453ad;fill-opacity:1;fill-rule:nonzero;stroke:none"
         d="M 1238.27,3836.1 V 5548.45 H 3977.44 V 4480.01 l 262.66,61.74 V 5811.07 H 975.66 v -2036.7 l 262.61,61.73" /></g></g></svg>